<svg height="16" viewBox="0 0 16 16" width="16" xmlns="http://www.w3.org/2000/svg"><g fill="none" stroke-linecap="round" stroke-linejoin="round" stroke-width="1.5"><path d="m.35908391 11.168901-3.44971591-5.9750829 3.44971588-5.97508313 6.89943172-.00000001 3.4497154 5.97508314-3.4497154 5.9750829z" stroke="#e0e0e0" stroke-width="1.73635" transform="matrix(.65923393 0 0 .65923393 2.25807 5.940373)"/><g stroke-width="1.5"><path d="m3.5128174 3.1733835c-.8317158-.9762241.97411-1.3351546 2.5298376-2.46301464 1.5242499 1.39035484 2.5389518 1.89641374 1.8841697 2.26130154-.654782.3648877-3.5822915 1.1779371-4.4140073.2017131z" stroke="#fc7f7f"/><path d="m12.382622 8.2985265c1.031798.337339.604805-.8278243 1.24495-3.1398301-2.00398-.4548225-3.198105-2.1301091-3.102986-.5846936.09512 1.5454155.826238 3.3871847 1.858036 3.7245237z" stroke="#fc7f7f"/><g stroke="#ff4596"><path d="m10.995493 10.260977c1.794184.46218 3.483198 2.158154 4.562907 3.539035"/><path d="m9.8158146 12.620334c1.2377324-.07201 3.0157784 1.557186 3.8951654 2.78226"/><path d="m8.0796841 14.846142c1.0819254-.0052 2.4148099.689121 3.4945189 1.424517"/></g></g></g></svg>